<mxfile host="app.diagrams.net" modified="2024-05-02T17:22:56.063Z" agent="Mozilla/5.0 (X11; Ubuntu; Linux x86_64; rv:125.0) Gecko/20100101 Firefox/125.0" version="24.3.1" etag="QHHBr9FDlbYfAAheaklf" type="github">
  <diagram name="Page-1" id="hgzN8b8IP2cR8pKJ5KMJ">
    <mxGraphModel>
      <root>
        <mxCell id="0" />
        <mxCell id="1" parent="0" />
      </root>
    </mxGraphModel>
  </diagram>
</mxfile>
